PathFileType	4	(X/Y/Z)	Patient5_TMGait_0pt45_1_right_10.trc.trc
DataRate	CameraRate	NumFrames	NumMarkers	Units	OrigDataRate	OrigDataStartFrame	OrigNumFrames
58.333333333333	58.333333333333	6	32	mm	58.333333333333	53	       141
Frame#	Time	R.ASIS			L.ASIS			Chest			R.Shoulder			Neck			L.Shoulder			L.Elbow			L.Wrist			R.Elbow			R.Wrist			L.Thigh.Superior			L.Thigh.Lateral			L.Thigh.Inferior			L.Patella			L.Shank.Superior			L.Shank.Lateral			L.Shank.Inferior			L.Heel			L.Midfoot.Lateral			L.Midfoot.Superior			L.Toe			R.Thigh.Superior			R.Thigh.Lateral			R.Thigh.Inferior			R.Patella			R.Shank.Superior			R.Shank.Lateral			R.Shank.Inferior			R.Heel			R.Midfoot.Lateral			R.Midfoot.Superior			R.Toe			
		X1	Y1	Z1	X2	Y2	Z2	X3	Y3	Z3	X4	Y4	Z4	X5	Y5	Z5	X6	Y6	Z6	X7	Y7	Z7	X8	Y8	Z8	X9	Y9	Z9	X10	Y10	Z10	X11	Y11	Z11	X12	Y12	Z12	X13	Y13	Z13	X14	Y14	Z14	X15	Y15	Z15	X16	Y16	Z16	X17	Y17	Z17	X18	Y18	Z18	X19	Y19	Z19	X20	Y20	Z20	X21	Y21	Z21	X22	Y22	Z22	X23	Y23	Z23	X24	Y24	Z24	X25	Y25	Z25	X26	Y26	Z26	X27	Y27	Z27	X28	Y28	Z28	X29	Y29	Z29	X30	Y30	Z30	X31	Y31	Z31	X32	Y32	Z32	

53	17.211428571429	927.748508144421	963.160819963238	610.791001009823	901.912643853404	957.662568381302	370.365530291335	1024.232443371047	1415.717965642925	510.746213514210	943.710116029374	1478.538059895111	686.859242939154	904.002218943460	1547.766042568618	508.058764393311	954.562356423969	1496.390174772127	321.845812070715	854.975868869903	1187.662038808839	187.882216851497	951.588938984053	914.194801764348	198.071497681402	872.704557349939	1166.841573987918	843.871935147743	1080.229607941039	979.684173714456	765.332092213494	981.275604506081	789.723986885551	347.404237743055	948.145561384838	704.252208198776	294.413387272335	1042.617182894611	678.197087443639	353.535564341332	1092.871106866973	542.438674590775	339.080004506844	1025.812107541193	434.769413253927	357.751977588952	938.310071518948	389.626399084315	283.728670428153	961.671911492170	325.237621867881	365.441432781375	775.063760885362	130.242820519171	363.311660225113	853.508249298469	93.854524248706	295.954044733495	963.437209610322	133.435157518089	333.609152621328	1057.724122316421	74.337370607226	328.192716463174	913.630011770650	728.777437499924	620.329452846061	819.008446057401	660.236046064918	674.588094885075	888.129167414477	601.840119547805	594.373632122061	879.266815712500	507.582077847283	618.676449040518	833.973180572673	418.930459445415	578.867401483870	766.194563345205	348.710190787987	659.061485524805	819.315098422470	280.656995646045	572.611927149294	701.478380411362	53.426272853771	527.427560389021	776.925997952030	24.825205058705	603.920434712428	883.338406419825	87.857180153340	583.924613027070	987.668574596534	45.162694661718	588.407408901113	
54	17.228571428571	924.990948137379	962.373768796386	611.200597488689	900.636091941162	956.834152645543	369.688538355394	1024.972525326131	1414.398448855516	509.197514192585	944.605954663166	1478.483862674657	684.917563686643	905.224103852514	1547.044822814375	505.752756656534	956.012294342483	1494.324111677346	319.801951547530	855.788509969272	1185.503151488343	186.686871294724	952.062772957680	911.933669213517	196.764770719627	871.465347856382	1167.379282462527	842.207832514289	1079.408427217424	980.688354487052	763.808858376920	978.258291482144	788.402153880238	347.337604971066	945.776480162880	703.208785202157	293.840885518202	1039.426233831130	677.074874454597	354.122622956026	1091.740970507804	544.833650018437	339.615713567266	1032.200344405864	435.337335574320	358.020635326969	948.035060982003	383.731449731961	284.140138790527	977.647054586871	320.737457128206	365.102075580004	807.888799627360	111.280985532467	364.135351607055	887.855104441016	81.458709635576	295.145022724610	995.237155600630	128.905751747731	331.184959442447	1093.787620952156	77.033100673177	323.656474435706	909.185746880059	727.994597767221	619.673860888350	814.064385835488	660.190591822546	673.906352989253	882.940191297697	601.149021722307	593.967731413626	873.559989221812	507.015384655240	618.339017228495	827.803234732296	418.762327166191	578.464822863892	759.414207344873	348.956900598990	658.536697712637	812.516072275207	280.563534741600	572.452107451040	693.756563027488	53.421012069699	527.412146220818	769.132994921665	24.867745179787	603.932029340446	875.540371124457	87.790130780419	583.877377041660	979.822683561239	45.181536818737	588.486111058780	
55	17.245714285714	922.557266569860	961.575602006346	611.523096803355	899.998626385143	955.549711235870	369.012015687779	1025.680752355601	1412.971343980286	507.468212894990	945.273934017557	1478.222107225641	682.646207047148	906.380227028838	1546.143452492434	503.106850613161	957.634979299747	1492.148890817781	317.497265779556	856.832206078625	1183.148801897413	185.319378507039	952.791496019991	909.472845315606	195.237701867702	870.435156874951	1167.604469877586	840.204509155733	1078.388386625372	980.850482719065	762.073692536487	975.325055585028	785.873390634114	346.806554421121	942.805153295299	700.943802343842	293.191020809311	1035.797694718123	674.471590507813	354.310764441872	1089.478037798570	545.992768915976	340.120746986167	1037.461251340495	435.327876680050	358.558347280662	957.237020474246	377.435614596314	284.744730417839	992.895603659308	316.432222819552	365.147475997503	840.779570219365	94.337660731076	365.186930398704	921.959655639869	70.284959556301	295.188521006344	1026.341148908529	125.033289839199	329.924080654656	1128.344411610688	80.047025245865	321.118021137708	905.099591851747	727.305916815573	619.097271018896	809.371122712389	660.178396410416	673.074655009388	878.096237785172	600.478903622646	593.568161594152	868.135488934970	506.442117100786	617.985442255122	821.902775231191	418.563249076435	578.022279628550	752.770385172250	349.229952302502	657.906759352768	805.879938180842	280.455619727855	572.282889398287	686.044047422551	53.441956321857	527.399293960385	761.343272546195	24.915324450261	603.939450926718	867.770231199779	87.707368312022	583.809917676643	971.972725743711	45.200306734818	588.564180432118	
56	17.262857142857	920.619600505130	960.781244666317	611.433590532170	900.127710873713	953.907560097061	368.307706950797	1026.286445087553	1411.514197188341	505.526069202073	945.607426398707	1477.824076508141	680.000348526404	907.404902502095	1545.122255458454	500.083081097034	959.396248684178	1489.959079738976	314.904441593470	858.197548494855	1180.689616439642	183.680363047592	953.809762865183	906.892772296343	193.615405342212	869.627421612394	1167.584814570419	837.858998410477	1077.180200288769	980.217509872853	760.144546596602	972.738775137588	782.263961614619	345.822486367229	939.430365453527	697.510193878441	292.613814288217	1031.997883081600	670.528839745259	354.226403960153	1086.284595156610	545.896649812537	340.856878033179	1041.474922230809	434.634412126683	359.577283699203	965.563059845816	370.928424813268	285.771733877373	1006.795021901411	312.341910667118	365.800565020496	872.165651465015	79.861489193171	366.502072883890	954.413090386908	60.595019791287	296.150750892556	1055.533618401658	121.792611055502	330.057923124639	1160.225818436614	83.052613880555	320.836562389693	901.493970920071	726.736728908209	618.582478183816	805.054559670468	660.198795683974	672.051409453656	873.697925863192	599.828564663079	593.116773920055	863.091135344262	505.852766957697	617.565099249993	816.354024109566	418.318175617005	577.506766355254	746.338436526944	349.539858104223	657.153267067110	799.442686397824	280.318414364764	572.067067578163	678.328641693124	53.477134410502	527.381123982579	753.552837590616	24.961617657597	603.942247982427	860.013965390983	87.619173730993	583.744221162575	964.124431564353	45.215706875887	588.633916195700	
57	17.280000000000	919.335945928152	959.988901850960	610.666212627765	901.125878736805	952.044537096776	367.532473587082	1026.729897796295	1410.120533060473	503.347564066448	945.504571235137	1477.375164853708	676.954980392542	908.232257172103	1544.046153186727	496.657530840121	961.241144672764	1487.843297069901	312.002351137162	859.971417806835	1178.208599590333	181.673111227573	955.160240237653	904.273986485134	192.011714054212	868.977647700684	1167.412090330275	835.178607169589	1075.794515765498	978.961472271056	758.029187852062	970.785767155467	777.787588750915	344.445829874620	935.956008043753	693.074809469252	292.247460801072	1028.338318459369	665.493897176575	354.056206146051	1082.449913524755	544.603501271437	342.103200565936	1044.200264661491	433.167592909280	361.252553307001	972.665726677499	364.389345859152	287.404415085646	1018.730798004187	308.403644079318	367.222040536340	900.370908131704	68.091032678043	368.085443326809	983.652632583828	52.474304550487	298.006025004250	1081.516079515829	118.989371616009	331.685605928531	1188.208307522224	85.542622600117	322.859031417309	898.480643988808	726.277181962735	618.058612115748	801.241400873483	660.242462963062	670.795818336327	869.850593520036	599.188493810369	592.550215900113	858.526744578375	505.231627413595	617.026995200696	811.233314044784	417.998323675555	576.879327076063	740.197321639983	349.891213672189	656.255762800815	793.245552338470	280.130239521459	571.761160576926	670.602938633174	53.507882083227	527.351923952181	745.760067817079	24.998998673727	603.938695244022	852.256852015597	87.537973607304	583.695317143758	956.284495182465	45.222683501118	588.688780111664	
58	17.297142857143	918.810815385883	959.191587071932	609.097180298969	903.043096734581	950.118563255634	366.639603303905	1026.976052943678	1408.895073107675	500.919863699855	944.883218100826	1476.966596252701	673.507938117711	908.811818738111	1542.983842088177	492.821802362266	963.104672189256	1485.882225407194	308.778186623831	862.221347290522	1175.778017689473	179.225125240926	956.887166829531	901.694006041351	190.508939294366	868.355034929671	1167.189160875823	832.172169381875	1074.243066174625	977.349821387741	755.733506051262	969.751021201087	772.754768932605	342.810529062826	932.779242301495	687.931880607666	292.209522586596	1025.158332114349	659.725685049739	354.032029389252	1078.343061807113	542.267350734742	344.105417224682	1045.686948332537	430.909036125812	363.676688513397	978.301168680924	358.011072439556	289.704375924603	1028.187751442051	304.529346002361	369.455523202451	923.840928699375	59.081839496288	369.868121692462	1008.178906008590	45.862547459484	300.606692440473	1103.092332825118	116.315356539667	334.734475294161	1211.175908851185	86.904227875581	327.000671070258	896.157252779810	725.885607080233	617.415125908897	798.050560805670	660.294982037965	669.277800884720	866.663432861616	598.545891417221	591.814405235633	854.540707274957	504.561043942386	616.330045158306	806.613890622524	417.569545988018	576.103506866259	734.429150130062	350.284212002002	655.196566416119	787.338963814772	279.868653293303	571.326832332816	662.864479178893	53.515004826880	527.309927739987	737.968089648942	25.021412939093	603.925798177702	844.489210347316	87.475353075849	583.666846768552	948.460475652922	45.214308828068	588.724371173736	
